# AST/ASF file generated using VICON BodyLanguage
# -----------------------------------------------
:version 1.10
:name VICON
:units
  mass 1.0
  length 0.45
  angle deg
:documentation
   .ast/.asf automatically generated from VICON data using
   VICON BodyBuilder and BodyLanguage model FoxedUp or BRILLIANT.MOD
:root
   order TX TY TZ RX RY RZ
   axis XYZ
   position 0 0 0  
   orientation 0 0 0 
:bonedata
  begin
     id 1 
     name lhipjoint
     direction 0.643824 -0.71708 0.266994 
     length 2.52133 
     axis 0 0 0  XYZ
  end
  begin
     id 2 
     name lfemur
     direction 0.34202 -0.939693 0  
     length 7.51824  
     axis 0 0 20  XYZ
    dof rx ry rz
    limits (-160.0 20.0)
           (-70.0 70.0)
           (-60.0 70.0)
  end
  begin
     id 3 
     name ltibia
     direction 0.34202 -0.939693 0   
     length 7.3685   
     axis 0 0 20   XYZ
    dof rx
    limits (-10.0 170.0)
  end
  begin
     id 4 
     name lfoot
     direction 0.105419 -0.289636 0.951314   
     length 2.20972   
     axis -90 7.62852e-016 20   XYZ
    dof rx rz
    limits (-45.0 90.0)
           (-70.0 20.0)
  end
  begin
     id 5 
     name ltoes
     direction 1.53549e-011 -4.21833e-011 1   
     length 1.10139   
     axis -90 7.62852e-016 20   XYZ
    dof rx
    limits (-90.0 20.0)
  end
  begin
     id 6 
     name rhipjoint
     direction -0.608823 -0.743445 0.276811   
     length 2.43192  
     axis 0 0 0  XYZ 
  end
  begin
     id 7 
     name rfemur
     direction -0.34202 -0.939693 0   
     length 7.69715   
     axis 0 0 -20   XYZ
    dof rx ry rz
    limits (-160.0 20.0)
           (-70.0 70.0)
           (-70.0 60.0)
  end
  begin
     id 8 
     name rtibia
     direction -0.34202 -0.939693 0   
     length 7.44924   
     axis 0 0 -20   XYZ
    dof rx
    limits (-10.0 170.0)
 end
 begin
     id 9 
     name rfoot
     direction -0.103614 -0.284677 0.953007   
     length 2.22623  
     axis -90 -7.62852e-016 -20   XYZ
    dof rx rz
    limits (-45.0 90.0)
           (-20.0 70.0)
  end
  begin
     id 10 
     name rtoes
     direction -1.53537e-011 -4.22026e-011 1   
     length 1.11   
     axis -90 -7.62852e-016 -20   XYZ
    dof rx
    limits (-90.0 20.0)
  end
  begin
     id 11 
     name lowerback
     direction -0.0101212 0.99662 -0.0815298   
     length 2.08277   
     axis 0 0 0   XYZ
    dof rx ry rz
    limits (-20.0 45.0)
           (-30.0 30.0)
           (-30.0 30.0)
  end
  begin
     id 12 
     name upperback
     direction 0.024314 0.999591 -0.0150645   
     length 2.08524   
     axis 0 0 0   XYZ
    dof rx ry rz
    limits (-20.0 45.0)
           (-30.0 30.0)
           (-30.0 30.0)
  end
  begin
     id 13 
     name thorax
     direction 0.0285959 0.999323 0.0231357   
     length 2.09645   
     axis 0 0 0   XYZ
    dof rx ry rz
    limits (-20.0 45.0)
           (-30.0 30.0)
           (-30.0 30.0)
  end
  begin
     id 14 
     name lowerneck
     direction -0.065512 0.979301 0.191515   
     length 1.63798   
     axis 0 0 0   XYZ
    dof rx ry rz
    limits (-20.0 45.0)
           (-30.0 30.0)
           (-30.0 30.0)
  end
  begin
     id 15 
     name upperneck
     direction 0.0498479 0.98191 -0.182667   
     length 1.68731   
     axis 0 0 0   XYZ
    dof rx ry rz
    limits (-20.0 45.0)
           (-30.0 30.0)
           (-30.0 30.0)
  end
  begin
     id 16
     name head
     direction 0.0230358 0.996257 -0.0833175  
     length 1.69785  
     axis 0 0 0   XYZ
    dof rx ry rz
    limits (-20.0 45.0)
           (-30.0 30.0)
           (-30.0 30.0)
  end
  begin
     id 17 
     name lclavicle
     direction 0.967963 0.201165 -0.150269  
     length 3.63976  
     axis 0 0 0   XYZ
    dof ry rz
    limits (-20.0 10.0)
           (0.0 20.0)
  end
  begin
     id 18 
     name lhumerus
     direction 1 -4.48954e-011 -2.92837e-028   
     length 5.32462   
     axis 180 -30 -90   XYZ
    dof rx ry rz
    limits (-60.0 90.0)
           (-90.0 90.0)
           (-90.0 90.0)
  end
  begin
     id 19
     name lradius
     direction 1 -4.48958e-011 -6.39511e-027   
     length 3.48402   
     axis 180 -30 -90   XYZ
    dof rx
    limits (-10.0 170.0)
  end
  begin
     id 20
     name lwrist
     direction 1 -4.48975e-011 -1.1413e-026   
     length 1.74201   
     axis 6.88575e-015 90 90   XYZ
    dof ry
    limits (-180.0 0.0)
 end
  begin
     id 21 
     name lhand
     direction 1 -4.48899e-011 -2.28192e-026   
     length 0.572476   
     axis 1.45643e-014 90 90   XYZ
    dof rx rz
    limits (-90.0 90.0)
           (-45.0 45.0)
  end
  begin
     id 22 
     name lfingers
     direction 1 -4.49155e-011 -4.5684e-026   
     length 0.461545   
     axis 2.91283e-014 90 90   XYZ
    dof rx
    limits (0.0 90.0)
  end
  begin
     id 23
     name lthumb
     direction 0.707107 -6.34943e-011 0.707107   
     length 0.662688   
     axis -90 45 -2.25915e-014   XYZ
    dof rx rz
    limits (-45.0 45.0)
           (-45.0 45.0)
  end
  begin
     id 24 
     name rclavicle
     direction -0.964103 0.264019 -0.0282629   
     length 3.54491  
     axis 0 0 0   XYZ 
    dof ry rz
    limits (-10.0 20.0)
           (-20.0 0.0)
  end
  begin
     id 25 
     name rhumerus
     direction -1 -4.48964e-011 -2.45032e-027  
     length 5.33589   
     axis 180 30 90   XYZ
    dof rx ry rz
    limits (-90.0 60.0)
           (-90.0 90.0)
           (-90.0 90.0)
  end
  begin
     id 26 
     name rradius
     direction -1 -4.48987e-011 -1.55093e-027   
     length 3.64134   
     axis 180 30 90   XYZ
    dof rx
    limits (-10.0 170.0)
  end
  begin
     id 27 
     name rwrist
     direction -1 -4.4897e-011 -1.14128e-026   
     length 1.82067   
     axis 6.88575e-015 -90 -90   XYZ
    dof ry
    limits (-180.0 0.0)
  end
  begin
     id 28
     name rhand
     direction -1 -4.49021e-011 -2.28301e-026   
     length 0.734811   
     axis 1.45643e-014 -90 -90   XYZ
    dof rx rz
    limits (-90.0 90.0)
           (-45.0 45.0)
  end
  begin
     id 29
     name rfingers
     direction -1 -4.48862e-011 -4.56319e-026   
     length 0.592424   
     axis 2.91283e-014 -90 -90   XYZ
    dof rx
    limits (0.0 90.0)
  end
  begin
     id 30
     name rthumb
     direction -0.707107 -6.34978e-011 0.707107   
     length 0.850605   
     axis -90 -45 2.25915e-014   XYZ
    dof rx rz
    limits (-45.0 45.0)
           (-45.0 45.0)
  end
:hierarchy
  begin
    root lhipjoint rhipjoint lowerback
    lhipjoint lfemur
    lfemur ltibia
    ltibia lfoot
    lfoot ltoes
    rhipjoint rfemur
    rfemur rtibia
    rtibia rfoot
    rfoot rtoes
    lowerback upperback
    upperback thorax
    thorax lowerneck lclavicle rclavicle
    lowerneck upperneck
    upperneck head
    lclavicle lhumerus
    lhumerus lradius
    lradius lwrist
    lwrist lhand lthumb
    lhand lfingers
    rclavicle rhumerus
    rhumerus rradius
    rradius rwrist
    rwrist rhand rthumb
    rhand rfingers
  end

#!OML:ASF F:\VICON\USERDATA\INSTALL\rory3\rory3.ASF
:FULLY-SPECIFIED
:DEGREES
1
root 1.41428 17.4965 1.81642 -12.3131 -75.9115 16.5223
lowerback 0.949411 0.795651 -5.432
upperback 0.845584 1.02228 1.14241
thorax 0.222462 0.484301 4.21817
lowerneck -25.9849 1.93606 -9.43617
upperneck 18.1563 6.87733 -3.26499
head 9.89692 2.00194 1.39998
rclavicle -1.35174e-014 5.56597e-015
rhumerus -32.6302 -8.74254 -78.8736
rradius 31.4167
rwrist 15.2639
rhand -18.6411 5.84106
rfingers 7.12502
rthumb 7.65155 -24.0005
lclavicle -1.35174e-014 5.56597e-015
lhumerus -30.0187 6.55389 82.7307
lradius 30.7854
lwrist -8.0288
lhand -10.0339 25.5059
lfingers 7.12502
lthumb 15.951 54.8691
rfemur -19.3581 0.210457 11.041
rtibia 41.8258
rfoot -23.8086 3.17553
rtoes 0.768169
lfemur -14.6621 3.18419 -28.2376
ltibia 31.254
lfoot -17.2407 -1.38287
ltoes -0.280994
2
root 1.4038 17.4995 1.82669 -12.0772 -76.0212 16.1704
lowerback 0.90215 0.830931 -5.31327
upperback 0.882213 1.07337 1.08712
thorax 0.283928 0.507823 4.09425
lowerneck -25.8813 1.86424 -9.44331
upperneck 18.0839 6.73905 -3.16129
head 9.85145 1.95894 1.41428
rclavicle 1.28216e-014 1.66979e-014
rhumerus -32.567 -9.22889 -78.6499
rradius 31.0566
rwrist 16.4497
rhand -18.3698 7.62047
rfingers 7.12502
rthumb 7.91343 -22.2114
lclavicle 1.28216e-014 1.66979e-014
lhumerus -29.8917 6.56826 82.6254
lradius 30.7843
lwrist -7.91486
lhand -9.98428 25.6654
lfingers 7.12502
lthumb 15.9988 55.0248
rfemur -19.1445 0.914134 11.2249
rtibia 41.5759
rfoot -22.8131 2.38689
rtoes 6.10898
lfemur -14.4683 3.11283 -28.1615
ltibia 31.2033
lfoot -17.2877 -1.12732
ltoes -0.658601
3
root 1.40014 17.4983 1.83494 -12.655 -76.0067 16.7155
lowerback 0.892566 0.845157 -5.46311
upperback 0.877718 1.09205 1.03326
thorax 0.281105 0.51677 4.1229
lowerneck -25.7795 1.78963 -9.52806
upperneck 18.01 6.6406 -3.12922
head 9.80673 1.91808 1.42112
rclavicle 6.06293e-015 -3.18055e-015
rhumerus -32.5259 -9.02495 -78.7235
rradius 31.1344
rwrist 16.5957
rhand -18.231 6.62737
rfingers 7.12502
rthumb 8.04744 -23.1994
lclavicle 6.06293e-015 -3.18055e-015
lhumerus -29.8012 6.96939 82.5335
lradius 30.7669
lwrist -8.08558
lhand -9.97739 25.6901
lfingers 7.12502
lthumb 16.0054 55.0489
rfemur -19.002 1.58194 11.0887
rtibia 41.516
rfoot -22.6144 1.0746
rtoes 7.89878
lfemur -14.364 3.22406 -28.3491
ltibia 31.1586
lfoot -17.2822 -1.07713
ltoes -1.63194
4
root 1.39988 17.4961 1.84216 -13.0273 -75.934 17.1254
lowerback 0.851024 0.829228 -5.55483
upperback 0.864726 1.07261 0.942386
thorax 0.293368 0.506751 4.08118
lowerneck -25.8421 1.71625 -9.57365
upperneck 18.0569 6.54131 -3.00691
head 9.83034 1.88174 1.45811
rclavicle 2.99668e-014 -1.03368e-014
rhumerus -32.4388 -9.12365 -78.7107
rradius 31.0477
rwrist 16.9129
rhand -18.0589 6.56277
rfingers 7.12502
rthumb 8.21348 -23.2576
lclavicle 2.99668e-014 -1.03368e-014
lhumerus -29.7058 7.14981 82.416
lradius 30.8231
lwrist -8.16874
lhand -10.0299 25.7384
lfingers 7.12502
lthumb 15.9549 55.1013
rfemur -18.8896 2.14177 10.9471
rtibia 41.393
rfoot -23.249 -0.731853
rtoes 4.73782
lfemur -14.3719 3.14917 -28.5113
ltibia 31.1542
lfoot -17.2928 -0.941059
ltoes -2.2389
5
root 1.39596 17.4989 1.8481 -12.1395 -75.926 16.1657
lowerback 0.876375 0.8189 -5.31809
upperback 0.840866 1.05822 0.917277
thorax 0.260478 0.502223 3.92114
lowerneck -25.8159 1.65936 -9.51439
upperneck 18.0832 6.42042 -2.91372
head 9.83607 1.8426 1.46403
rclavicle 9.14409e-015 8.34896e-015
rhumerus -32.3915 -9.27108 -78.7143
rradius 30.864
rwrist 17.1572
rhand -17.9997 6.70291
rfingers 7.12502
rthumb 8.27059 -23.1152
lclavicle 9.14409e-015 8.34896e-015
lhumerus -29.6638 7.02119 82.3144
lradius 30.8927
lwrist -7.87844
lhand -10.2305 25.8502
lfingers 7.12502
lthumb 15.7617 55.2284
rfemur -18.7088 2.88662 11.1969
rtibia 41.2771
rfoot -23.9686 -2.34206
rtoes 1.6706
lfemur -14.3092 2.87254 -28.2787
ltibia 31.1689
lfoot -17.3024 -0.74013
ltoes -2.05966
6
root 1.38984 17.5047 1.85261 -10.905 -75.9308 14.882
lowerback 0.882833 0.774894 -5.07116
upperback 0.782583 0.999675 0.9807
thorax 0.205846 0.476796 3.84753
lowerneck -25.6728 1.63704 -9.60721
upperneck 17.9863 6.37057 -2.79672
head 9.76984 1.83705 1.50847
rclavicle -3.18055e-015 -8.74653e-015
rhumerus -32.3654 -9.12108 -78.6824
rradius 30.7056
rwrist 17.1283
rhand -18.0749 6.99736
rfingers 7.12502
rthumb 8.19805 -22.8236
lclavicle -3.18055e-015 -8.74653e-015
lhumerus -29.6805 7.34016 82.1992
lradius 30.9153
lwrist -7.77678
lhand -10.5232 25.8537
lfingers 7.12502
lthumb 15.4798 55.254
rfemur -18.5714 3.67333 11.5338
rtibia 41.1299
rfoot -23.9883 -2.73202
rtoes 3.18561
lfemur -14.2905 2.75777 -27.9487
ltibia 31.2153
lfoot -17.3456 -0.688477
ltoes -2.09646
7
root 1.38323 17.5075 1.85667 -10.2405 -75.9624 14.1576
lowerback 0.881953 0.724445 -4.96173
upperback 0.750507 0.93261 1.02018
thorax 0.18126 0.445008 3.82712
lowerneck -25.6686 1.65104 -9.76909
upperneck 18.0033 6.39714 -2.56826
head 9.75855 1.86707 1.61786
rclavicle -6.85807e-014 -1.59028e-014
rhumerus -32.3003 -8.97023 -78.6485
rradius 30.5201
rwrist 17.1399
rhand -18.2585 7.52473
rfingers 7.12502
rthumb 8.02088 -22.3031
lclavicle -6.85807e-014 -1.59028e-014
lhumerus -29.7356 7.87313 82.0484
lradius 30.9539
lwrist -7.70171
lhand -10.855 25.792
lfingers 7.12502
lthumb 15.1602 55.2167
rfemur -18.4308 4.22082 11.7158
rtibia 40.981
rfoot -23.51 -2.11247
rtoes 7.10566
lfemur -14.2509 2.78849 -27.769
ltibia 31.2625
lfoot -17.3627 -0.643457
ltoes -2.42526
8
root 1.37576 17.5102 1.86227 -9.77287 -75.9827 13.5976
lowerback 0.90345 0.697286 -4.92238
upperback 0.738948 0.89532 1.04421
thorax 0.161322 0.427239 3.82982
lowerneck -25.6945 1.66273 -9.69437
upperneck 17.9849 6.38531 -2.55358
head 9.75772 1.87007 1.60997
rclavicle 2.13694e-015 -6.75868e-015
rhumerus -32.2506 -9.05732 -78.5883
rradius 30.3827
rwrist 17.3566
rhand -18.2698 7.46664
rfingers 7.12502
rthumb 8.00996 -22.3616
lclavicle 2.13694e-015 -6.75868e-015
lhumerus -29.7764 8.4083 81.9268
lradius 30.9937
lwrist -7.61394
lhand -11.2219 25.9047
lfingers 7.12502
lthumb 14.8067 55.3557
rfemur -18.2571 4.47322 11.8548
rtibia 40.8575
rfoot -23.2483 -1.73265
rtoes 8.94158
lfemur -14.1491 2.63251 -27.6315
ltibia 31.2753
lfoot -17.4045 -0.553014
ltoes -2.03034
9
root 1.36777 17.5126 1.87161 -9.71443 -75.9618 13.4963
lowerback 0.82825 0.660839 -4.96011
upperback 0.748757 0.850594 1.05027
thorax 0.21763 0.403015 3.85886
lowerneck -25.6861 1.63098 -9.6919
upperneck 17.9057 6.33231 -2.54686
head 9.72945 1.85172 1.60267
rclavicle -3.0911e-014 -7.95139e-016
rhumerus -32.1679 -8.91872 -78.5297
rradius 30.3698
rwrist 17.3982
rhand -18.1392 7.05244
rfingers 7.12502
rthumb 8.13597 -22.7709
lclavicle -3.0911e-014 -7.95139e-016
lhumerus -29.8144 8.86502 81.8542
lradius 31.0542
lwrist -7.57861
lhand -11.4853 25.9839
lfingers 7.12502
lthumb 14.553 55.4534
rfemur -18.1398 4.56863 11.8592
rtibia 40.7966
rfoot -23.2974 -2.2996
rtoes 6.05277
lfemur -14.0521 2.38642 -27.6467
ltibia 31.2518
lfoot -17.4012 -0.309602
ltoes -1.9389
10
root 1.35412 17.5188 1.88418 -9.41864 -75.9817 13.0986
lowerback 0.67822 0.671065 -4.8301
upperback 0.829249 0.873714 1.05485
thorax 0.383938 0.408957 3.79256
lowerneck -25.7643 1.55627 -9.76679
upperneck 17.8577 6.25518 -2.50973
head 9.72499 1.81717 1.61613
rclavicle -3.86139e-014 -7.95139e-016
rhumerus -32.0448 -8.71722 -78.4727
rradius 30.3721
rwrist 17.0467
rhand -18.2247 6.74587
rfingers 7.12502
rthumb 8.05346 -23.0807
lclavicle -3.86139e-014 -7.95139e-016
lhumerus -29.7099 9.15263 81.8496
lradius 31.023
lwrist -7.52279
lhand -11.6658 25.9886
lfingers 7.12502
lthumb 14.379 55.4706
rfemur -17.9335 4.81954 11.9382
rtibia 40.7413
rfoot -23.2431 -2.98397
rtoes 2.68787
lfemur -13.8678 2.0975 -27.5959
ltibia 31.2209
lfoot -17.4432 0.101317
ltoes -2.48627
11
root 1.35046 17.5226 1.88984 -9.13355 -75.7283 12.8096
lowerback 0.678284 0.610471 -4.84106
upperback 0.816563 0.792747 1.03386
thorax 0.379219 0.368852 3.77745
lowerneck -25.8756 1.49306 -9.80156
upperneck 17.8346 6.18083 -2.44915
head 9.73484 1.78819 1.63304
rclavicle -9.59136e-015 -7.95139e-015
rhumerus -31.9761 -8.73367 -78.3777
rradius 30.3227
rwrist 16.885
rhand -18.2176 6.57396
rfingers 7.12502
rthumb 8.06028 -23.2523
lclavicle -9.59136e-015 -7.95139e-015
lhumerus -29.6328 9.47147 81.8309
lradius 30.9663
lwrist -7.60214
lhand -11.6303 25.9336
lfingers 7.12502
lthumb 14.4133 55.4131
rfemur -17.8159 4.7736 11.9562
rtibia 40.6884
rfoot -22.8967 -3.13905
rtoes 1.90136
lfemur -13.8371 1.79847 -27.5953
ltibia 31.1886
lfoot -17.409 0.14688
ltoes -2.60688
12
root 1.34583 17.5248 1.89827 -8.52643 -75.5524 12.1867
lowerback 0.658241 0.549099 -4.77174
upperback 0.792706 0.711768 1.05599
thorax 0.374589 0.329284 3.76179
lowerneck -25.9845 1.48271 -9.72496
upperneck 17.8752 6.15622 -2.44695
head 9.77075 1.77882 1.62073
rclavicle 1.963e-014 -1.59028e-015
rhumerus -31.9397 -8.69567 -78.2718
rradius 30.338
rwrist 16.9492
rhand -18.4309 5.75203
rfingers 7.12502
rthumb 7.85441 -24.0821
lclavicle 1.963e-014 -1.59028e-015
lhumerus -29.6585 9.66208 81.8624
lradius 30.9674
lwrist -7.49717
lhand -11.5409 26.043
lfingers 7.12502
lthumb 14.4994 55.5164
rfemur -17.6863 4.75104 12.0505
rtibia 40.6024
rfoot -22.688 -2.91101
rtoes 2.82937
lfemur -13.7925 1.51314 -27.4962
ltibia 31.1686
lfoot -17.4068 0.289506
ltoes -2.33331
13
root 1.34207 17.5288 1.90491 -7.92588 -75.4658 11.5657
lowerback 0.658172 0.524015 -4.72693
upperback 0.766956 0.677997 1.10462
thorax 0.351421 0.313652 3.78686
lowerneck -26.062 1.44402 -9.72076
upperneck 17.8614 6.09518 -2.37522
head 9.77793 1.76056 1.63725
rclavicle 3.18552e-014 -1.51076e-014
rhumerus -31.9122 -9.25863 -77.7839
rradius 30.18
rwrist 17.9809
rhand -18.6349 5.52868
rfingers 7.12502
rthumb 7.65754 -24.3127
lclavicle 3.18552e-014 -1.51076e-014
lhumerus -29.7119 9.529 82.0132
lradius 31.0206
lwrist -6.91448
lhand -11.7517 26.288
lfingers 7.12502
lthumb 14.2963 55.7759
rfemur -17.5744 4.83409 12.1605
rtibia 40.5073
rfoot -22.823 -2.97354
rtoes 2.46891
lfemur -13.7631 1.2904 -27.3735
ltibia 31.1578
lfoot -17.3847 0.460856
ltoes -2.26885
14
root 1.3393 17.5328 1.9112 -7.59849 -75.3698 11.274
lowerback 0.615875 0.525535 -4.75379
upperback 0.744149 0.681699 1.1323
thorax 0.350721 0.31587 3.83093
lowerneck -26.1753 1.3597 -9.74588
upperneck 17.8376 5.9934 -2.33558
head 9.79031 1.71695 1.64112
rclavicle 1.52567e-014 7.95139e-015
rhumerus -31.8833 -9.73096 -77.3686
rradius 30.0852
rwrist 18.4894
rhand -18.7419 5.60546
rfingers 7.12502
rthumb 7.55427 -24.2396
lclavicle 1.52567e-014 7.95139e-015
lhumerus -29.6973 9.36742 82.2076
lradius 31.0422
lwrist -6.38861
lhand -11.9821 26.4762
lfingers 7.12502
lthumb 14.0742 55.9796
rfemur -17.5447 4.68457 12.1918
rtibia 40.4164
rfoot -22.9846 -3.02147
rtoes 2.51758
lfemur -13.7801 1.16629 -27.3297
ltibia 31.1315
lfoot -17.3879 0.505414
ltoes -2.46385
